<svg width="148" height="200" viewBox="0 0 148 200" fill="none" xmlns="http://www.w3.org/2000/svg">
<path d="M123.363 5.89875C121.655 7.94945 120.363 14.2482 119.363 16.8988C107.114 49.389 77.6546 63.3305 80.3627 100.899C80.571 103.8 79.3071 105.913 79.3627 108.899C79.4923 115.874 79.6497 122.942 79.3627 129.899C79.2516 132.661 79.8348 136.718 79.3627 139.899C78.5989 144.907 77.8071 149.849 77.3627 154.899C76.5155 164.636 74.5152 174.357 72.3627 183.899C71.5016 187.735 69.7656 189.532 71.3627 193.899C71.4292 194.09 71.1919 194.788 71.3627 194.899C71.5334 195.01 72.1584 194.914 72.3627 194.899C74.0754 194.75 75.3072 193.573 76.3627 191.899C90.75 169.16 87.8767 138.525 89.3627 112.899C90.2931 96.7164 89.5582 80.9004 99.3627 67.8988C108.403 55.9015 121.627 41.142 126.363 26.8988C128.14 21.5139 127.793 15.7858 128.363 9.89875C128.682 6.57858 127.293 1.15565 123.363 5.89875Z" stroke="white" stroke-width="8"/>
<path d="M73.6838 62.3668C81.3483 52.9691 91.0094 44.9139 99.6838 36.3668C108.497 27.6663 111.229 18.5809 108.684 6.36675C107.757 1.97469 105.265 5.63781 104.684 7.36675C101.622 16.4762 97.4483 23.8546 91.6838 29.3668C82.9541 37.7326 71.7296 45.7321 65.6838 55.3668C40.4077 95.5646 63.5782 146.715 43.6838 189.367C43.5798 189.58 43.6958 190.143 43.6838 190.367C43.6719 190.591 43.6015 191.174 43.6838 191.367C44.7214 193.863 47.4249 191.817 48.6838 190.367C54.9003 183.228 58.3465 174.941 59.6838 165.367C60.9151 156.541 61.8913 144.866 61.6838 134.367C61.2134 111.026 58.5347 80.9529 73.6838 62.3668Z" stroke="white" stroke-width="8"/>
<path d="M84.2751 7.08077C78.6597 27.1832 58.6991 38.5185 46.2751 54.0808C38.5726 63.7199 33.5774 73.5977 31.2751 85.0808C26.7968 107.418 29.4641 124.601 31.2751 145.081C32.5806 159.777 29.7253 172.349 25.2751 186.081C23.0149 193.08 28.3691 191.853 31.2751 188.081C45.7206 169.278 43.2404 143.348 41.2751 121.081C39.2816 98.6733 42.3489 79.3392 56.2751 61.0808C64.0898 50.8363 71.3667 41.2321 79.2751 31.0808C85.0168 23.7048 85.6466 17.8794 87.2751 7.08077C87.3085 6.85839 87.3518 6.28041 87.2751 6.08077C87.1983 5.88112 87.4396 6.1991 87.2751 6.08077C85.8712 5.08426 84.8179 5.13432 84.2751 7.08077Z" stroke="white" stroke-width="8"/>
<path d="M55.8677 10.9222C53.3819 6.58634 50.6453 15.6703 49.8677 17.9222C49.09 20.188 47.7842 21.6424 46.8677 23.9222C44.5347 29.7126 38.7284 37.4605 35.8677 39.9222C21.4902 52.333 13.1729 67.4412 10.8677 85.9222C9.5901 96.2163 10.5623 106.649 11.8677 117.922C13.3952 131.126 14.3812 146.439 11.8677 159.922C10.2105 168.855 7.5895 177.232 4.86769 185.922C4.80868 186.112 4.788 186.744 4.86769 186.922C4.94737 187.101 4.69114 186.849 4.86769 186.922C8.95967 188.591 12.1457 187.671 13.8677 183.922C24.755 160.257 22.5895 135.497 19.8677 108.922C18.1087 91.728 21.9801 75.7644 30.8677 59.9222C34.7143 53.0827 46.9379 41.1605 51.8677 28.9222C53.8257 24.0688 54.5762 17.4609 55.8677 11.9222C55.975 11.4556 56.073 11.2816 55.8677 10.9222Z" stroke="white" stroke-width="8"/>
<path d="M137.938 13.9146C132.259 25.918 125.759 37.228 118.938 48.9146C109.315 65.3821 104.36 78.6932 102.938 97.9146C101.825 112.975 100.957 124.741 100.938 132.915C100.925 144.601 99.6918 155.382 97.9384 166.915C96.7786 174.547 94.1336 182.268 91.9384 189.915C91.1238 192.766 91.5478 197.381 95.9384 193.915C102.013 189.12 107.013 171.407 107.938 163.915C110.189 145.504 110.923 127.283 112.938 108.915C113.73 101.729 114.386 94.1278 114.938 86.9146C115.532 79.2819 118.948 70.5407 122.938 63.9146C130.712 51.0398 138.382 38.383 142.938 23.9146C144.098 20.2101 143.788 17.0319 141.938 13.9146C140.512 11.5102 139.135 11.389 137.938 13.9146Z" stroke="white" stroke-width="8"/>
<path d="M123.355 5.90058C127.285 1.15748 128.675 6.58041 128.355 9.90058C127.786 15.7876 128.133 21.5158 126.355 26.9006C121.62 41.1439 108.396 55.9033 99.3551 67.9006C89.5506 80.9023 90.2856 96.7182 89.3551 112.901C87.8691 138.527 90.7424 169.162 76.3551 191.901C75.2997 193.575 74.0679 194.752 72.3551 194.901C72.1508 194.916 71.5259 195.012 71.3551 194.901C71.1843 194.79 71.4217 194.092 71.3551 193.901C69.758 189.534 71.4941 187.737 72.3551 183.901C74.5076 174.359 76.508 164.638 77.3551 154.901C77.7995 149.851 78.5913 144.909 79.3551 139.901C79.8273 136.72 79.244 132.663 79.3551 129.901C79.6421 122.944 79.4847 115.876 79.3551 108.901C79.2995 105.915 80.5634 103.802 80.3551 100.901C77.6471 63.3324 107.106 49.3909 119.355 16.9006C120.355 14.25 121.647 7.95128 123.355 5.90058Z" fill="#00936D"/>
<path d="M99.6763 36.3686C91.0018 44.9157 81.3407 52.971 73.6763 62.3686C58.5272 80.9547 61.2059 111.028 61.6763 134.369C61.8838 144.868 60.9076 156.543 59.6763 165.369C58.3389 174.943 54.8927 183.23 48.6763 190.369C47.4173 191.819 44.7139 193.864 43.6763 191.369C43.5939 191.176 43.6643 190.593 43.6763 190.369C43.6882 190.145 43.5722 189.582 43.6763 189.369C63.5707 146.717 40.4001 95.5664 65.6763 55.3686C71.7221 45.7339 82.9465 37.7344 91.6763 29.3686C97.4407 23.8564 101.614 16.4781 104.676 7.36858C105.257 5.63964 107.749 1.97652 108.676 6.36858C111.222 18.5827 108.489 27.6681 99.6763 36.3686Z" fill="#00936D"/>
<path d="M84.2751 7.08077C84.8179 5.13432 85.8712 5.08426 87.2751 6.08077C87.4396 6.1991 87.1983 5.88112 87.2751 6.08077C87.3518 6.28041 87.3085 6.85839 87.2751 7.08077C85.6466 17.8794 85.0168 23.7048 79.2751 31.0808C71.3667 41.2321 64.0898 50.8363 56.2751 61.0808C42.3489 79.3392 39.2816 98.6733 41.2751 121.081C43.2404 143.348 45.7206 169.278 31.2751 188.081C28.3691 191.853 23.0149 193.08 25.2751 186.081C29.7253 172.349 32.5806 159.777 31.2751 145.081C29.4641 124.601 26.7968 107.418 31.2751 85.0808C33.5774 73.5977 38.5726 63.7199 46.2751 54.0808C58.6991 38.5185 78.6597 27.1832 84.2751 7.08077Z" fill="#00936D"/>
<path d="M49.8677 17.9222C50.6453 15.6703 53.3819 6.58634 55.8677 10.9222C56.073 11.2816 55.975 11.4556 55.8677 11.9222C54.5762 17.4609 53.8257 24.0688 51.8677 28.9222C46.9379 41.1605 34.7143 53.0827 30.8677 59.9222C21.9801 75.7644 18.1087 91.728 19.8677 108.922C22.5895 135.497 24.755 160.257 13.8677 183.922C12.1457 187.671 8.95967 188.591 4.86769 186.922C4.69114 186.849 4.94737 187.101 4.86769 186.922C4.788 186.744 4.80868 186.112 4.86769 185.922C7.5895 177.232 10.2105 168.855 11.8677 159.922C14.3812 146.439 13.3952 131.126 11.8677 117.922C10.5623 106.649 9.5901 96.2163 10.8677 85.9222C13.1729 67.4412 21.4902 52.333 35.8677 39.9222C38.7284 37.4605 44.5347 29.7126 46.8677 23.9222C47.7842 21.6424 49.09 20.188 49.8677 17.9222Z" fill="#00936D"/>
<path d="M137.931 13.9165C139.127 11.391 140.504 11.5121 141.931 13.9165C143.781 17.0339 144.091 20.212 142.931 23.9165C138.375 38.385 130.704 51.0417 122.931 63.9165C118.941 70.5427 115.524 79.2839 114.931 86.9165C114.379 94.1298 113.722 101.731 112.931 108.917C110.915 127.285 110.181 145.506 107.931 163.917C107.006 171.409 102.006 189.122 95.9308 193.917C91.5403 197.383 91.1162 192.768 91.9308 189.917C94.1261 182.27 96.771 174.549 97.9308 166.917C99.6843 155.384 100.917 144.603 100.931 132.917C100.949 124.743 101.817 112.977 102.931 97.9165C104.353 78.6952 109.308 65.384 118.931 48.9165C125.751 37.2299 132.252 25.92 137.931 13.9165Z" fill="#00936D"/>
</svg>
