<svg width="206" height="144" viewBox="0 0 206 144" fill="none" xmlns="http://www.w3.org/2000/svg">
<path d="M106.003 61.0008C106.134 61.0429 105.904 60.9046 106.003 61.0008C106.101 61.0969 105.957 61.8707 106.003 62.0008C106.049 62.1309 106.019 61.8637 106.003 62.0008C105.986 62.1378 106.078 61.8853 106.003 62.0008C100.075 71.0318 90.0792 88.0795 95.0027 99.0008C98.5036 106.8 106.234 108.843 114.003 106.001C127.467 101.044 139.561 95.1416 152.003 88.0008C155.201 86.1619 159.33 85.4021 163.003 85.0008C164.481 84.8421 164.793 84.7313 164.003 86.0008C157.768 95.9699 148.521 105.816 141.003 115.001C135.131 122.156 126.161 135.234 138.003 139.001C149.775 142.725 180.966 123.072 193.003 116.001C195.36 114.615 200.04 111.123 201.003 108.001C203.555 99.6138 195.596 99.5365 190.003 102.001C186.516 103.541 174.902 106.514 179.003 98.0008C183.619 88.4656 190.71 76.2477 181.003 68.0008C174.266 62.2741 161.781 63.3183 155.003 67.0008C140.079 75.1217 129.019 80.8445 123.003 83.0008C118.967 84.4383 117.905 82.7999 119.003 79.0008C122.378 67.2814 126.035 58.3723 125.003 45.0008C124.966 44.5272 125.283 43.3374 125.003 43.0008C122.399 39.8364 119.373 39.0207 115.003 40.0008C103.956 42.4931 92.226 45.7816 81.0027 50.0008C72.1738 53.3192 66.3992 55.2167 58.0027 56.0008C55.7246 56.2155 54.3281 55.269 54.0027 53.0008C52.8729 45.1458 60.3078 33.698 67.0027 23.0008C70.0015 18.1982 73.6418 7.46506 67.0027 5.00077C60.1823 2.46647 20.9948 21.8703 13.0027 26.0008C7.85599 28.6611 0.786248 33.3021 6.0027 39.0008C13.8413 47.5558 33.0064 27.8563 42.0027 32.0008C43.7043 32.7849 43.1464 33.5166 42.0027 35.0008C38.1671 39.9714 8.89978 77.3788 30.0027 77.0008C38.5806 76.8467 46.192 74.821 54.0027 73.0008C67.0578 69.9344 80.1847 65.0052 93.0027 61.0008C97.6055 59.5726 101.721 59.5866 106.003 61.0008Z" stroke="white" stroke-width="8"/>
<path d="M45.0029 55.0013C43.7113 56.6555 41.0382 60.1774 46.0029 59.0013C46.2107 58.9513 45.8338 58.1272 46.0029 58.0013C46.172 57.8754 46.9015 58.1815 47.0029 58.0013C47.1043 57.8211 46.9866 57.2049 47.0029 57.0013C47.0192 56.7977 47.0745 57.1933 47.0029 57.0013C46.3571 55.2264 45.6577 54.1656 45.0029 55.0013Z" stroke="#FF6D41" stroke-width="8"/>
<path d="M106.003 61.0008C101.721 59.5866 97.6055 59.5726 93.0027 61.0008C80.1847 65.0052 67.0578 69.9344 54.0027 73.0008C46.192 74.821 38.5806 76.8467 30.0027 77.0008C8.89978 77.3788 38.1671 39.9714 42.0027 35.0008C43.1464 33.5166 43.7043 32.7849 42.0027 32.0008C33.0064 27.8563 13.8413 47.5558 6.0027 39.0008C0.786248 33.3021 7.85599 28.6611 13.0027 26.0008C20.9948 21.8703 60.1823 2.46647 67.0027 5.00077C73.6418 7.46506 70.0015 18.1982 67.0027 23.0008C60.3078 33.698 52.8729 45.1458 54.0027 53.0008C54.3281 55.269 55.7246 56.2155 58.0027 56.0008C66.3992 55.2167 72.1738 53.3192 81.0027 50.0008C92.226 45.7816 103.956 42.4931 115.003 40.0008C119.373 39.0207 122.399 39.8364 125.003 43.0008C125.283 43.3374 124.966 44.5272 125.003 45.0008C126.035 58.3723 122.378 67.2814 119.003 79.0008C117.905 82.7999 118.967 84.4383 123.003 83.0008C129.019 80.8445 140.079 75.1217 155.003 67.0008C161.781 63.3183 174.266 62.2741 181.003 68.0008C190.71 76.2477 183.619 88.4656 179.003 98.0008C174.902 106.514 186.516 103.541 190.003 102.001C195.596 99.5365 203.555 99.6138 201.003 108.001C200.04 111.123 195.36 114.615 193.003 116.001C180.966 123.072 149.775 142.725 138.003 139.001C126.161 135.234 135.131 122.156 141.003 115.001C148.521 105.816 157.768 95.9699 164.003 86.0008C164.793 84.7313 164.481 84.8421 163.003 85.0008C159.33 85.4021 155.201 86.1619 152.003 88.0008C139.561 95.1416 127.467 101.044 114.003 106.001C106.234 108.843 98.5036 106.8 95.0027 99.0008C90.0792 88.0795 100.075 71.0318 106.003 62.0008C105.986 62.1378 106.078 61.8853 106.003 62.0008C106.019 61.8637 106.049 62.1309 106.003 62.0008C105.957 61.8707 106.101 61.0969 106.003 61.0008C106.134 61.0429 105.904 60.9046 106.003 61.0008ZM45.0027 55.0008C43.6637 56.793 40.856 60.2749 46.0027 59.0008C46.2181 58.9466 46.8274 59.1371 47.0027 59.0008C47.178 58.8644 46.8976 58.196 47.0027 58.0008C46.9858 58.2213 47.1078 57.8056 47.0027 58.0008C47.0196 57.7802 47.0769 57.2088 47.0027 57.0008C46.3332 55.0779 45.6815 54.0953 45.0027 55.0008Z" fill="#FF6D41"/>
<path d="M45.0029 55.0013C45.6577 54.1656 46.3571 55.2264 47.0029 57.0013C47.0192 56.7977 47.0745 57.1933 47.0029 57.0013C46.9866 57.2049 47.1043 57.8211 47.0029 58.0013C46.9015 58.1815 46.172 57.8754 46.0029 58.0013C45.8338 58.1272 46.2107 58.9513 46.0029 59.0013C41.0382 60.1774 43.7113 56.6555 45.0029 55.0013Z" fill="#FF6D41"/>
</svg>
